<svg xmlns="http://www.w3.org/2000/svg" viewBox="0 0 760 620" fill="none">
  <!-- Orquestrator Studies — a estrela-mãe (path canônico intacto) ganha uma
       órbita: a constelação de estudo. Variante tinta-navy para fundo claro. -->
  <g transform="translate(118.5,48.5)">
    <path fill="#00012f" d="M250.168 7.83547C254.034 -2.61195 268.81 -2.61197 272.676 7.83545L296.638 72.5928C322.973 143.76 379.083 199.871 450.25 226.205L515.008 250.167C525.455 254.033 525.455 268.81 515.008 272.676L450.251 296.638C379.084 322.972 322.973 379.083 296.638 450.25L272.676 515.007C268.81 525.455 254.034 525.455 250.168 515.007L226.205 450.25C199.871 379.083 143.76 322.972 72.5933 296.638L7.83596 272.676C-2.61146 268.81 -2.61148 254.033 7.83594 250.167L72.5932 226.205C143.76 199.871 199.871 143.76 226.205 72.5928L250.168 7.83547Z"/>
  </g>
  <!-- órbita elíptica: passa POR TRÁS da ponta superior e NA FRENTE da base -->
  <g stroke="#1b0095" stroke-width="14" fill="none">
    <ellipse cx="380" cy="310" rx="352" ry="132" transform="rotate(-16 380 310)" opacity="0.28"/>
    <path d="M 48 396 A 352 132 -16 0 0 712 224" opacity="0.9" stroke-linecap="round"/>
  </g>
  <!-- o satélite: um ponto de estudo em órbita -->
  <circle cx="700" cy="231" r="17" fill="#1b0095"/>
</svg>
